<?xml version="1.0" encoding="UTF-8"?>
<!DOCTYPE svg PUBLIC "-//W3C//DTD SVG 1.1//EN" "http://www.w3.org/Graphics/SVG/1.1/DTD/svg11.dtd">
<svg xmlns="http://www.w3.org/2000/svg" version="1.1" width="74px" height="56px" style="shape-rendering:geometricPrecision; text-rendering:geometricPrecision; image-rendering:optimizeQuality; fill-rule:evenodd; clip-rule:evenodd" xmlns:xlink="http://www.w3.org/1999/xlink">
<g><path style="opacity:1" fill="#fcfcfc" d="M -0.5,-0.5 C 24.1667,-0.5 48.8333,-0.5 73.5,-0.5C 73.5,18.1667 73.5,36.8333 73.5,55.5C 48.8333,55.5 24.1667,55.5 -0.5,55.5C -0.5,36.8333 -0.5,18.1667 -0.5,-0.5 Z"/></g>
<g><path style="opacity:1" fill="#6db3ed" d="M 54.5,11.5 C 57.7537,8.52851 61.4204,6.02851 65.5,4C 67.4021,2.6989 69.4021,2.03224 71.5,2C 66.1018,5.69783 60.4352,8.86449 54.5,11.5 Z"/></g>
<g><path style="opacity:1" fill="#f9fdfa" d="M 27.5,15.5 C 25.8333,16.5 24.5,17.8333 23.5,19.5C 18.4518,15.1384 12.4518,13.1384 5.5,13.5C 9.87402,11.4224 14.374,9.42239 19,7.5C 21.7291,10.3993 24.5624,13.066 27.5,15.5 Z"/></g>
<g><path style="opacity:1" fill="#ea8191" d="M 30.5,15.5 C 30.1667,15.5 29.8333,15.5 29.5,15.5C 31.4033,12.9298 33.7366,10.5964 36.5,8.5C 38.1013,9.03467 38.6013,10.0347 38,11.5C 37.2825,10.5494 36.4491,10.3828 35.5,11C 33.7605,12.517 32.0938,14.017 30.5,15.5 Z"/></g>
<g><path style="opacity:1" fill="#99df8b" d="M 28.5,15.5 C 28.1667,15.5 27.8333,15.5 27.5,15.5C 24.5624,13.066 21.7291,10.3993 19,7.5C 14.374,9.42239 9.87402,11.4224 5.5,13.5C 4.50838,13.6716 3.84171,13.3382 3.5,12.5C 8.24637,10.1339 13.2464,8.13392 18.5,6.5C 20.9435,7.76689 23.2769,9.26689 25.5,11C 27.1412,12.129 28.1412,13.629 28.5,15.5 Z"/></g>
<g><path style="opacity:1" fill="#f6fbf8" d="M 41.5,13.5 C 44.5,13.5 47.5,13.5 50.5,13.5C 48.5368,14.8202 46.5368,16.1535 44.5,17.5C 43.5,16.1667 42.5,14.8333 41.5,13.5 Z"/></g>
<g><path style="opacity:1" fill="#f7faf9" d="M 40.5,13.5 C 40.7376,15.4044 41.7376,16.7377 43.5,17.5C 41.4922,19.2676 39.3256,20.9343 37,22.5C 35.9609,21.2899 34.7942,20.2899 33.5,19.5C 34.5993,16.0679 36.9326,14.0679 40.5,13.5 Z"/></g>
<g><path style="opacity:1" fill="#86eaec" d="M 3.5,12.5 C 3.84171,13.3382 4.50838,13.6716 5.5,13.5C 12.4518,13.1384 18.4518,15.1384 23.5,19.5C 24.5,21.1667 25.8333,22.5 27.5,23.5C 27.5,24.1667 27.5,24.8333 27.5,25.5C 27.1667,25.5 26.8333,25.5 26.5,25.5C 25.5,23.8333 24.1667,22.5 22.5,21.5C 22.5,20.8333 22.1667,20.5 21.5,20.5C 20.7101,19.2058 19.7101,18.0391 18.5,17C 12.924,16.7854 7.59065,15.6187 2.5,13.5C 2.62358,12.8933 2.95691,12.56 3.5,12.5 Z"/></g>
<g><path style="opacity:1" fill="#93e086" d="M 28.5,16.5 C 28.5,16.1667 28.5,15.8333 28.5,15.5C 28.8333,15.5 29.1667,15.5 29.5,15.5C 29.8333,15.5 30.1667,15.5 30.5,15.5C 30.8333,16.5 31.5,17.1667 32.5,17.5C 32.5,18.1667 32.1667,18.5 31.5,18.5C 30.5,17.8333 29.5,17.1667 28.5,16.5 Z"/></g>
<g><path style="opacity:1" fill="#79b8eb" d="M 54.5,11.5 C 54.5,11.8333 54.5,12.1667 54.5,12.5C 53.209,12.2627 52.209,12.596 51.5,13.5C 51.1667,13.5 50.8333,13.5 50.5,13.5C 47.5,13.5 44.5,13.5 41.5,13.5C 41.1667,13.5 40.8333,13.5 40.5,13.5C 36.9326,14.0679 34.5993,16.0679 33.5,19.5C 32.8333,19.5 32.5,19.8333 32.5,20.5C 31.197,22.1423 29.8637,23.8089 28.5,25.5C 28.1667,25.5 27.8333,25.5 27.5,25.5C 27.5,24.8333 27.5,24.1667 27.5,23.5C 29.543,22.4206 30.8763,20.754 31.5,18.5C 32.1667,18.5 32.5,18.1667 32.5,17.5C 33.5964,15.8968 34.9297,14.3968 36.5,13C 42.4348,11.7614 48.4348,11.2614 54.5,11.5 Z"/></g>
<g><path style="opacity:1" fill="#ee7e92" d="M 40.5,13.5 C 40.8333,13.5 41.1667,13.5 41.5,13.5C 42.5,14.8333 43.5,16.1667 44.5,17.5C 44.1667,17.5 43.8333,17.5 43.5,17.5C 41.7376,16.7377 40.7376,15.4044 40.5,13.5 Z"/></g>
<g><path style="opacity:1" fill="#9ada88" d="M 54.5,12.5 C 58.5,14.1667 62.5,15.8333 66.5,17.5C 66.8417,18.3382 67.5084,18.6716 68.5,18.5C 71.2393,21.0233 70.906,21.6899 67.5,20.5C 67.1667,20.5 66.8333,20.5 66.5,20.5C 66.5,19.8333 66.1667,19.5 65.5,19.5C 65.1583,18.6618 64.4916,18.3284 63.5,18.5C 61.351,17.2638 59.0177,16.2638 56.5,15.5C 55.8333,14.5 55.1667,13.5 54.5,12.5 Z"/></g>
<g><path style="opacity:1" fill="#97e7e7" d="M 51.5,13.5 C 52.209,12.596 53.209,12.2627 54.5,12.5C 55.1667,13.5 55.8333,14.5 56.5,15.5C 57.8333,17.5 59.1667,19.5 60.5,21.5C 60.56,22.0431 60.8933,22.3764 61.5,22.5C 62.9014,21.4793 64.2347,20.4793 65.5,19.5C 66.1667,19.5 66.5,19.8333 66.5,20.5C 65.3995,21.6049 64.7329,22.9382 64.5,24.5C 63.8333,24.8333 63.1667,25.1667 62.5,25.5C 59.1162,21.7875 55.7829,18.1208 52.5,14.5C 52.5,13.8333 52.1667,13.5 51.5,13.5 Z"/></g>
<g><path style="opacity:1" fill="#f6fcf8" d="M 56.5,15.5 C 59.0177,16.2638 61.351,17.2638 63.5,18.5C 62.8333,19.8333 61.8333,20.8333 60.5,21.5C 59.1667,19.5 57.8333,17.5 56.5,15.5 Z"/></g>
<g><path style="opacity:1" fill="#b67380" d="M 68.5,18.5 C 67.5084,18.6716 66.8417,18.3382 66.5,17.5C 67.6653,15.5839 69.332,14.7506 71.5,15C 70.3636,16.1451 69.3636,17.3117 68.5,18.5 Z"/></g>
<g><path style="opacity:1" fill="#e97c8d" d="M 27.5,15.5 C 27.8333,15.5 28.1667,15.5 28.5,15.5C 28.5,15.8333 28.5,16.1667 28.5,16.5C 27.1007,17.8897 25.4341,18.8897 23.5,19.5C 24.5,17.8333 25.8333,16.5 27.5,15.5 Z"/></g>
<g><path style="opacity:1" fill="#f4f7f6" d="M 28.5,16.5 C 29.5,17.1667 30.5,17.8333 31.5,18.5C 30.8763,20.754 29.543,22.4206 27.5,23.5C 25.8333,22.5 24.5,21.1667 23.5,19.5C 25.4341,18.8897 27.1007,17.8897 28.5,16.5 Z"/></g>
<g><path style="opacity:1" fill="#91dc80" d="M 50.5,13.5 C 50.8333,13.5 51.1667,13.5 51.5,13.5C 52.1667,13.5 52.5,13.8333 52.5,14.5C 50.1184,15.3507 48.1184,16.684 46.5,18.5C 43.2923,20.0212 40.1257,21.6879 37,23.5C 35.3566,22.6854 33.8566,21.6854 32.5,20.5C 32.5,19.8333 32.8333,19.5 33.5,19.5C 34.7942,20.2899 35.9609,21.2899 37,22.5C 39.3256,20.9343 41.4922,19.2676 43.5,17.5C 43.8333,17.5 44.1667,17.5 44.5,17.5C 46.5368,16.1535 48.5368,14.8202 50.5,13.5 Z"/></g>
<g><path style="opacity:1" fill="#f8f9f9" d="M 46.5,18.5 C 46.6495,19.552 46.4828,20.552 46,21.5C 43.0631,25.721 39.8965,29.721 36.5,33.5C 34.1727,30.5061 31.5061,27.8394 28.5,25.5C 29.8637,23.8089 31.197,22.1423 32.5,20.5C 33.8566,21.6854 35.3566,22.6854 37,23.5C 40.1257,21.6879 43.2923,20.0212 46.5,18.5 Z"/></g>
<g><path style="opacity:1" fill="#e9808f" d="M 63.5,18.5 C 64.4916,18.3284 65.1583,18.6618 65.5,19.5C 64.2347,20.4793 62.9014,21.4793 61.5,22.5C 60.8933,22.3764 60.56,22.0431 60.5,21.5C 61.8333,20.8333 62.8333,19.8333 63.5,18.5 Z"/></g>
<g><path style="opacity:1" fill="#fbfbfc" d="M 22.5,21.5 C 24.1667,22.5 25.5,23.8333 26.5,25.5C 24.7635,29.5689 21.7635,32.2356 17.5,33.5C 15.79,32.1128 14.1233,30.7794 12.5,29.5C 13.1667,28.5 13.8333,27.5 14.5,26.5C 17.4749,25.3449 20.1416,23.6782 22.5,21.5 Z"/></g>
<g><path style="opacity:1" fill="#f9f9f9" d="M 52.5,14.5 C 55.7829,18.1208 59.1162,21.7875 62.5,25.5C 59.8978,30.5289 56.8978,35.3623 53.5,40C 42.6777,40.2115 32.3444,38.0448 22.5,33.5C 23.9213,30.9906 25.5879,28.6572 27.5,26.5C 30.2654,29.6605 33.2654,32.6605 36.5,35.5C 40.4121,31.3211 44.0787,26.9878 47.5,22.5C 49.3113,25.8467 51.978,27.68 55.5,28C 56.5,27 57.5,26 58.5,25C 56.6133,24.8374 55.1133,25.6707 54,27.5C 51.9604,25.6298 50.1271,23.6298 48.5,21.5C 49.8611,19.1495 51.1944,16.8162 52.5,14.5 Z"/></g>
<g><path style="opacity:1" fill="#535253" d="M 66.5,20.5 C 66.8333,20.5 67.1667,20.5 67.5,20.5C 67.2624,22.4044 66.2624,23.7377 64.5,24.5C 64.7329,22.9382 65.3995,21.6049 66.5,20.5 Z"/></g>
<g><path style="opacity:1" fill="#6eb4ed" d="M 9.5,28.5 C 7.4048,27.588 5.4048,26.4213 3.5,25C 2.54943,24.2825 2.38277,23.4491 3,22.5C 5.66373,23.9984 7.8304,25.9984 9.5,28.5 Z"/></g>
<g><path style="opacity:1" fill="#e87c8c" d="M 21.5,20.5 C 22.1667,20.5 22.5,20.8333 22.5,21.5C 20.1416,23.6782 17.4749,25.3449 14.5,26.5C 16.6068,24.2733 18.9401,22.2733 21.5,20.5 Z"/></g>
<g><path style="opacity:1" fill="#82eaeb" d="M 52.5,14.5 C 51.1944,16.8162 49.8611,19.1495 48.5,21.5C 47.8333,21.5 47.5,21.8333 47.5,22.5C 44.0787,26.9878 40.4121,31.3211 36.5,35.5C 33.2654,32.6605 30.2654,29.6605 27.5,26.5C 27.5,26.1667 27.5,25.8333 27.5,25.5C 27.8333,25.5 28.1667,25.5 28.5,25.5C 31.5061,27.8394 34.1727,30.5061 36.5,33.5C 39.8965,29.721 43.0631,25.721 46,21.5C 46.4828,20.552 46.6495,19.552 46.5,18.5C 48.1184,16.684 50.1184,15.3507 52.5,14.5 Z"/></g>
<g><path style="opacity:1" fill="#e97b8c" d="M 48.5,21.5 C 50.1271,23.6298 51.9604,25.6298 54,27.5C 55.1133,25.6707 56.6133,24.8374 58.5,25C 57.5,26 56.5,27 55.5,28C 51.978,27.68 49.3113,25.8467 47.5,22.5C 47.5,21.8333 47.8333,21.5 48.5,21.5 Z"/></g>
<g><path style="opacity:1" fill="#e9818f" d="M 14.5,26.5 C 13.8333,27.5 13.1667,28.5 12.5,29.5C 11.8333,29.5 11.5,29.1667 11.5,28.5C 11.9731,27.0937 12.9731,26.427 14.5,26.5 Z"/></g>
<g><path style="opacity:1" fill="#ec8593" d="M 9.5,29.5 C 10.1667,29.5 10.5,29.8333 10.5,30.5C 9.39514,31.6005 8.06181,32.2671 6.5,32.5C 7.16667,31.1667 8.16667,30.1667 9.5,29.5 Z"/></g>
<g><path style="opacity:1" fill="#659fd3" d="M 26.5,25.5 C 26.8333,25.5 27.1667,25.5 27.5,25.5C 27.5,25.8333 27.5,26.1667 27.5,26.5C 25.5879,28.6572 23.9213,30.9906 22.5,33.5C 21.8333,33.5 21.5,33.8333 21.5,34.5C 20.391,34.5569 19.391,34.8902 18.5,35.5C 18.1667,35.5 17.8333,35.5 17.5,35.5C 15.4687,33.4776 13.1354,31.8109 10.5,30.5C 10.5,29.8333 10.1667,29.5 9.5,29.5C 9.5,29.1667 9.5,28.8333 9.5,28.5C 10.1667,28.5 10.8333,28.5 11.5,28.5C 11.5,29.1667 11.8333,29.5 12.5,29.5C 14.1233,30.7794 15.79,32.1128 17.5,33.5C 21.7635,32.2356 24.7635,29.5689 26.5,25.5 Z"/></g>
<g><path style="opacity:1" fill="#82eced" d="M 64.5,26.5 C 66.5622,30.2795 68.8955,33.9461 71.5,37.5C 70.8333,38.8333 70.1667,38.8333 69.5,37.5C 67.4742,34.4822 65.4742,31.4822 63.5,28.5C 63.3284,27.5084 63.6618,26.8417 64.5,26.5 Z"/></g>
<g><path style="opacity:1" fill="#e98292" d="M 6.5,32.5 C 5.74557,34.4459 4.41224,35.2793 2.5,35C 3.47088,33.5187 4.80422,32.6854 6.5,32.5 Z"/></g>
<g><path style="opacity:1" fill="#5f5f5f" d="M 64.5,24.5 C 64.5,25.1667 64.5,25.8333 64.5,26.5C 63.6618,26.8417 63.3284,27.5084 63.5,28.5C 59.8634,32.9829 56.3634,37.6496 53,42.5C 41.9094,41.9183 31.4094,39.2516 21.5,34.5C 21.5,33.8333 21.8333,33.5 22.5,33.5C 32.3444,38.0448 42.6777,40.2115 53.5,40C 56.8978,35.3623 59.8978,30.5289 62.5,25.5C 63.1667,25.1667 63.8333,24.8333 64.5,24.5 Z"/></g>
<g><path style="opacity:1" fill="#383837" d="M 17.5,35.5 C 17.8333,35.5 18.1667,35.5 18.5,35.5C 15.1793,40.1518 11.5126,44.4851 7.5,48.5C 10.1094,43.617 13.4427,39.2837 17.5,35.5 Z"/></g>
<g><path style="opacity:1" fill="#404040" d="M 7.5,48.5 C 6.96882,50.5441 5.80216,52.2107 4,53.5C 4.0768,51.2285 5.24347,49.5618 7.5,48.5 Z"/></g>
</svg>
