<?xml version="1.0" encoding="UTF-8"?>
<!DOCTYPE svg PUBLIC "-//W3C//DTD SVG 1.1//EN" "http://www.w3.org/Graphics/SVG/1.1/DTD/svg11.dtd">
<svg xmlns="http://www.w3.org/2000/svg" version="1.1" width="74px" height="56px" style="shape-rendering:geometricPrecision; text-rendering:geometricPrecision; image-rendering:optimizeQuality; fill-rule:evenodd; clip-rule:evenodd" xmlns:xlink="http://www.w3.org/1999/xlink">
<g><path style="opacity:0.996" fill="#fdfdfd" d="M -0.5,-0.5 C 24.1667,-0.5 48.8333,-0.5 73.5,-0.5C 73.5,15.5 73.5,31.5 73.5,47.5C 68.4997,49.6643 63.833,52.331 59.5,55.5C 52.1667,55.5 44.8333,55.5 37.5,55.5C 41.0372,53.1244 43.7038,49.9577 45.5,46C 45.3552,45.228 45.0219,44.5613 44.5,44C 37.6555,42.6697 32.1555,44.8364 28,50.5C 26.9914,52.0249 26.4914,53.6916 26.5,55.5C 17.5,55.5 8.5,55.5 -0.5,55.5C -0.5,36.8333 -0.5,18.1667 -0.5,-0.5 Z"/></g>
<g><path style="opacity:1" fill="#f6f7f7" d="M 53.5,18.5 C 53.5,19.1667 53.5,19.8333 53.5,20.5C 51.472,26.2279 48.3054,26.8946 44,22.5C 41.3502,17.3685 42.8502,14.3685 48.5,13.5C 51.2775,14.0545 52.9442,15.7212 53.5,18.5 Z"/></g>
<g><path style="opacity:1" fill="#fbf3f5" d="M 61.5,24.5 C 59.4602,22.823 57.4602,21.1563 55.5,19.5C 56.795,18.5116 58.1283,17.5116 59.5,16.5C 63.9771,14.3948 65.8104,15.7282 65,20.5C 64.34,22.3237 63.1733,23.657 61.5,24.5 Z"/></g>
<g><path style="opacity:1" fill="#6d1f34" d="M 59.5,11.5 C 59.5,13.1667 59.5,14.8333 59.5,16.5C 58.1283,17.5116 56.795,18.5116 55.5,19.5C 54.8333,19.8333 54.1667,20.1667 53.5,20.5C 53.5,19.8333 53.5,19.1667 53.5,18.5C 54.7095,18.0679 55.7095,17.4013 56.5,16.5C 57.9348,15.0867 58.9348,13.42 59.5,11.5 Z"/></g>
<g><path style="opacity:1" fill="#1769c0" d="M 17.5,15.5 C 32.5088,15.9675 34.5088,21.4675 23.5,32C 17.7218,36.0103 11.3884,37.3437 4.5,36C 1.13552,32.9738 0.635522,29.4738 3,25.5C 7.2083,21.1025 12.0416,17.7692 17.5,15.5 Z"/></g>
<g><path style="opacity:1" fill="#606060" d="M 49.5,17.5 C 51.337,17.6395 51.6704,18.3061 50.5,19.5C 49.7025,19.0431 49.3691,18.3764 49.5,17.5 Z"/></g>
<g><path style="opacity:1" fill="#585858" d="M 44.5,18.5 C 46.337,18.6395 46.6704,19.3061 45.5,20.5C 44.7025,20.0431 44.3691,19.3764 44.5,18.5 Z"/></g>
<g><path style="opacity:1" fill="#eff5fb" d="M 16.5,19.5 C 18.5273,19.3379 20.5273,19.5045 22.5,20C 24.2112,21.1332 24.7112,22.6332 24,24.5C 19.8472,29.997 14.3472,32.1636 7.5,31C 6.44636,29.6124 6.27969,28.1124 7,26.5C 9.82486,23.524 12.9915,21.1907 16.5,19.5 Z"/></g>
<g><path style="opacity:1" fill="#b4204d" d="M 46.5,26.5 C 49.5406,26.4056 51.2072,27.9056 51.5,31C 52.5768,31.4696 53.5768,31.3029 54.5,30.5C 56.3146,29.3702 58.3146,28.7036 60.5,28.5C 61.4345,27.4324 61.7678,26.099 61.5,24.5C 63.1733,23.657 64.34,22.3237 65,20.5C 65.8104,15.7282 63.9771,14.3948 59.5,16.5C 59.5,14.8333 59.5,13.1667 59.5,11.5C 67.7754,9.0451 71.2754,12.0451 70,20.5C 67.2182,28.7306 61.5515,33.7306 53,35.5C 48.4076,34.3333 46.241,31.3333 46.5,26.5 Z"/></g>
<g><path style="opacity:1" fill="#f2f2f2" d="M 60.5,28.5 C 58.3146,28.7036 56.3146,29.3702 54.5,30.5C 54.1412,28.629 53.1412,27.129 51.5,26C 52.8333,26 54.1667,26 55.5,26C 55.9426,24.4815 55.2759,23.3148 53.5,22.5C 55.061,21.6527 56.561,21.9861 58,23.5C 58,24.8333 58,26.1667 58,27.5C 59.9076,24.6677 60.741,25.001 60.5,28.5 Z"/></g>
<g><path style="opacity:1" fill="#9e9d9d" d="M 56.5,16.5 C 55.7095,17.4013 54.7095,18.0679 53.5,18.5C 52.9442,15.7212 51.2775,14.0545 48.5,13.5C 42.8502,14.3685 41.3502,17.3685 44,22.5C 48.3054,26.8946 51.472,26.2279 53.5,20.5C 54.1667,20.1667 54.8333,19.8333 55.5,19.5C 57.4602,21.1563 59.4602,22.823 61.5,24.5C 61.7678,26.099 61.4345,27.4324 60.5,28.5C 60.741,25.001 59.9076,24.6677 58,27.5C 58,26.1667 58,24.8333 58,23.5C 56.561,21.9861 55.061,21.6527 53.5,22.5C 55.2759,23.3148 55.9426,24.4815 55.5,26C 54.1667,26 52.8333,26 51.5,26C 53.1412,27.129 54.1412,28.629 54.5,30.5C 53.5768,31.3029 52.5768,31.4696 51.5,31C 51.2072,27.9056 49.5406,26.4056 46.5,26.5C 44.3302,25.1618 42.6635,23.3284 41.5,21C 36.26,20.0038 34.5934,17.1704 36.5,12.5C 36.4176,10.7483 37.2509,9.74831 39,9.5C 40.9597,10.2918 42.4597,11.6251 43.5,13.5C 45.9585,12.081 48.6251,11.081 51.5,10.5C 52.427,8.05443 54.0937,7.2211 56.5,8C 53.6212,9.66582 52.7879,12.1658 54,15.5C 54.6708,16.2524 55.5041,16.5858 56.5,16.5 Z"/></g>
<g><path style="opacity:1" fill="#fbfbfb" d="M 36.5,12.5 C 38.0098,11.2721 39.5098,11.2721 41,12.5C 41.4955,14.4727 41.6621,16.4727 41.5,18.5C 37.686,18.3491 36.0193,16.3491 36.5,12.5 Z"/></g>
<g><path style="opacity:0.982" fill="#b41c4e" d="M 73.5,47.5 C 73.5,50.1667 73.5,52.8333 73.5,55.5C 68.8333,55.5 64.1667,55.5 59.5,55.5C 63.833,52.331 68.4997,49.6643 73.5,47.5 Z"/></g>
<g><path style="opacity:1" fill="#1c66bf" d="M 37.5,55.5 C 33.8333,55.5 30.1667,55.5 26.5,55.5C 26.4914,53.6916 26.9914,52.0249 28,50.5C 32.1555,44.8364 37.6555,42.6697 44.5,44C 45.0219,44.5613 45.3552,45.228 45.5,46C 43.7038,49.9577 41.0372,53.1244 37.5,55.5 Z"/></g>
<g><path style="opacity:1" fill="#f1f7fb" d="M 36.5,45.5 C 37.8333,45.5 39.1667,45.5 40.5,45.5C 39.2941,50.6964 35.9608,53.3631 30.5,53.5C 30.3433,52.1266 30.51,50.7932 31,49.5C 33.0153,48.3034 34.8487,46.9701 36.5,45.5 Z"/></g>
</svg>
