<?xml version="1.0" encoding="UTF-8"?>
<!DOCTYPE svg PUBLIC "-//W3C//DTD SVG 1.1//EN" "http://www.w3.org/Graphics/SVG/1.1/DTD/svg11.dtd">
<svg xmlns="http://www.w3.org/2000/svg" version="1.1" width="74px" height="56px" style="shape-rendering:geometricPrecision; text-rendering:geometricPrecision; image-rendering:optimizeQuality; fill-rule:evenodd; clip-rule:evenodd" xmlns:xlink="http://www.w3.org/1999/xlink">
<g><path style="opacity:1" fill="#f7f8f8" d="M -0.5,-0.5 C 2.16667,-0.5 4.83333,-0.5 7.5,-0.5C 6.15786,2.16584 4.32452,4.49918 2,6.5C 1.33333,8.83333 1.33333,11.1667 2,13.5C 3.72609,14.5762 5.55942,14.7429 7.5,14C 9.58213,8.88822 13.2488,6.88822 18.5,8C 20.234,12.3158 19.5674,16.1492 16.5,19.5C 14.629,19.8588 13.129,20.8588 12,22.5C 11.3333,26.1667 11.3333,29.8333 12,33.5C 12.3826,34.056 12.8826,34.3893 13.5,34.5C 14.8845,35.8009 16.3845,35.8009 18,34.5C 18.3333,31.8333 18.6667,29.1667 19,26.5C 29.4169,18.2631 30.2502,9.26306 21.5,-0.5C 38.8333,-0.5 56.1667,-0.5 73.5,-0.5C 73.5,18.1667 73.5,36.8333 73.5,55.5C 48.8333,55.5 24.1667,55.5 -0.5,55.5C -0.5,36.8333 -0.5,18.1667 -0.5,-0.5 Z"/></g>
<g><path style="opacity:1" fill="#3c8bd4" d="M 71.5,2.5 C 71.5,5.5 71.5,8.5 71.5,11.5C 68.5,11.5 65.5,11.5 62.5,11.5C 62.5,8.5 62.5,5.5 62.5,2.5C 65.5,2.5 68.5,2.5 71.5,2.5 Z"/></g>
<g><path style="opacity:1" fill="#8b949f" d="M 29.5,1.5 C 43.6569,0.504081 57.9903,0.170748 72.5,0.5C 72.5,4.16667 72.5,7.83333 72.5,11.5C 72.1667,11.5 71.8333,11.5 71.5,11.5C 71.5,8.5 71.5,5.5 71.5,2.5C 57.6766,1.50418 43.6766,1.17085 29.5,1.5 Z"/></g>
<g><path style="opacity:1" fill="#b8d2ed" d="M 7.5,-0.5 C 12.1667,-0.5 16.8333,-0.5 21.5,-0.5C 30.2502,9.26306 29.4169,18.2631 19,26.5C 18.6667,29.1667 18.3333,31.8333 18,34.5C 16.3845,35.8009 14.8845,35.8009 13.5,34.5C 14.8221,34.67 15.9887,34.3366 17,33.5C 17.3333,30.8333 17.6667,28.1667 18,25.5C 26.0056,19.2236 27.5056,11.7236 22.5,3C 12.933,-2.27575 6.26638,0.0575809 2.5,10C 2.28141,11.9713 3.11474,13.1379 5,13.5C 7.10028,11.3997 9.26694,9.23306 11.5,7C 19.4883,4.65914 22.6549,7.49247 21,15.5C 20.2525,17.751 18.7525,19.0844 16.5,19.5C 19.5674,16.1492 20.234,12.3158 18.5,8C 13.2488,6.88822 9.58213,8.88822 7.5,14C 5.55942,14.7429 3.72609,14.5762 2,13.5C 1.33333,11.1667 1.33333,8.83333 2,6.5C 4.32452,4.49918 6.15786,2.16584 7.5,-0.5 Z"/></g>
<g><path style="opacity:1" fill="#275889" d="M 29.5,1.5 C 43.6766,1.17085 57.6766,1.50418 71.5,2.5C 68.5,2.5 65.5,2.5 62.5,2.5C 62.5,5.5 62.5,8.5 62.5,11.5C 61.8333,11.5 61.5,11.8333 61.5,12.5C 61.5,15.8333 61.5,19.1667 61.5,22.5C 57.6286,22.185 53.9619,22.5184 50.5,23.5C 47.1667,23.5 43.8333,23.5 40.5,23.5C 40.5,26.5 40.5,29.5 40.5,32.5C 43.8333,32.5 47.1667,32.5 50.5,32.5C 50.5,32.8333 50.5,33.1667 50.5,33.5C 47.1667,33.5 43.8333,33.5 40.5,33.5C 40.5,36.8333 40.5,40.1667 40.5,43.5C 40.5,43.8333 40.5,44.1667 40.5,44.5C 40.5,47.5 40.5,50.5 40.5,53.5C 40.5,53.8333 40.5,54.1667 40.5,54.5C 36.8333,54.5 33.1667,54.5 29.5,54.5C 29.5,36.8333 29.5,19.1667 29.5,1.5 Z"/></g>
<g><path style="opacity:1" fill="#408bd3" d="M 51.5,2.5 C 54.5,2.5 57.5,2.5 60.5,2.5C 60.5,5.5 60.5,8.5 60.5,11.5C 57.5,11.5 54.5,11.5 51.5,11.5C 51.5,8.5 51.5,5.5 51.5,2.5 Z"/></g>
<g><path style="opacity:1" fill="#3f88ce" d="M 40.5,2.5 C 43.8333,2.5 47.1667,2.5 50.5,2.5C 50.5,5.5 50.5,8.5 50.5,11.5C 47.1667,11.5 43.8333,11.5 40.5,11.5C 40.5,8.5 40.5,5.5 40.5,2.5 Z"/></g>
<g><path style="opacity:1" fill="#3f8bd3" d="M 30.5,2.5 C 33.5,2.5 36.5,2.5 39.5,2.5C 39.5,5.5 39.5,8.5 39.5,11.5C 36.5,11.5 33.5,11.5 30.5,11.5C 30.5,8.5 30.5,5.5 30.5,2.5 Z"/></g>
<g><path style="opacity:1" fill="#408dd6" d="M 30.5,12.5 C 33.5,12.5 36.5,12.5 39.5,12.5C 39.5,15.5 39.5,18.5 39.5,21.5C 36.5,21.5 33.5,21.5 30.5,21.5C 30.5,18.5 30.5,15.5 30.5,12.5 Z"/></g>
<g><path style="opacity:1" fill="#3f89d0" d="M 40.5,12.5 C 43.8333,12.5 47.1667,12.5 50.5,12.5C 50.5,15.5 50.5,18.5 50.5,21.5C 47.1667,21.5 43.8333,21.5 40.5,21.5C 40.5,18.5 40.5,15.5 40.5,12.5 Z"/></g>
<g><path style="opacity:1" fill="#418dd6" d="M 51.5,12.5 C 54.5,12.5 57.5,12.5 60.5,12.5C 60.5,15.5 60.5,18.5 60.5,21.5C 57.5,21.5 54.5,21.5 51.5,21.5C 51.5,18.5 51.5,15.5 51.5,12.5 Z"/></g>
<g><path style="opacity:1" fill="#ce3a71" d="M 61.5,12.5 C 64.8333,12.5 68.1667,12.5 71.5,12.5C 71.5,15.8333 71.5,19.1667 71.5,22.5C 68.1667,22.5 64.8333,22.5 61.5,22.5C 61.5,19.1667 61.5,15.8333 61.5,12.5 Z"/></g>
<g><path style="opacity:1" fill="#814a67" d="M 61.5,12.5 C 61.5,11.8333 61.8333,11.5 62.5,11.5C 65.5,11.5 68.5,11.5 71.5,11.5C 71.8333,11.5 72.1667,11.5 72.5,11.5C 72.5,15.1667 72.5,18.8333 72.5,22.5C 72.1667,22.5 71.8333,22.5 71.5,22.5C 71.5,19.1667 71.5,15.8333 71.5,12.5C 68.1667,12.5 64.8333,12.5 61.5,12.5 Z"/></g>
<g><path style="opacity:1" fill="#5a98d6" d="M 13.5,34.5 C 12.8826,34.3893 12.3826,34.056 12,33.5C 11.3333,29.8333 11.3333,26.1667 12,22.5C 13.129,20.8588 14.629,19.8588 16.5,19.5C 18.7525,19.0844 20.2525,17.751 21,15.5C 22.6549,7.49247 19.4883,4.65914 11.5,7C 9.26694,9.23306 7.10028,11.3997 5,13.5C 3.11474,13.1379 2.28141,11.9713 2.5,10C 6.26638,0.0575809 12.933,-2.27575 22.5,3C 27.5056,11.7236 26.0056,19.2236 18,25.5C 17.6667,28.1667 17.3333,30.8333 17,33.5C 15.9887,34.3366 14.8221,34.67 13.5,34.5 Z"/></g>
<g><path style="opacity:1" fill="#3d8bd3" d="M 50.5,23.5 C 50.5,26.5 50.5,29.5 50.5,32.5C 47.1667,32.5 43.8333,32.5 40.5,32.5C 40.5,29.5 40.5,26.5 40.5,23.5C 43.8333,23.5 47.1667,23.5 50.5,23.5 Z"/></g>
<g><path style="opacity:1" fill="#336a9b" d="M 61.5,22.5 C 64.8333,22.5 68.1667,22.5 71.5,22.5C 71.8333,22.5 72.1667,22.5 72.5,22.5C 72.5,29.5 72.5,36.5 72.5,43.5C 72.1667,43.5 71.8333,43.5 71.5,43.5C 71.5,40.5 71.5,37.5 71.5,34.5C 68.5,34.5 65.5,34.5 62.5,34.5C 62.5,37.5 62.5,40.5 62.5,43.5C 62.1667,43.5 61.8333,43.5 61.5,43.5C 61.5,36.5 61.5,29.5 61.5,22.5 Z"/></g>
<g><path style="opacity:1" fill="#3e8cd7" d="M 62.5,23.5 C 65.5,23.5 68.5,23.5 71.5,23.5C 71.5,26.5 71.5,29.5 71.5,32.5C 68.5,32.5 65.5,32.5 62.5,32.5C 62.5,29.5 62.5,26.5 62.5,23.5 Z"/></g>
<g><path style="opacity:1" fill="#4291dd" d="M 30.5,23.5 C 33.5,23.5 36.5,23.5 39.5,23.5C 39.5,26.5 39.5,29.5 39.5,32.5C 36.5,32.5 33.5,32.5 30.5,32.5C 30.5,29.5 30.5,26.5 30.5,23.5 Z"/></g>
<g><path style="opacity:1" fill="#3e8cd4" d="M 30.5,34.5 C 33.5,34.5 36.5,34.5 39.5,34.5C 39.5,37.5 39.5,40.5 39.5,43.5C 36.5,43.5 33.5,43.5 30.5,43.5C 30.5,40.5 30.5,37.5 30.5,34.5 Z"/></g>
<g><path style="opacity:1" fill="#ce3d73" d="M 50.5,33.5 C 50.5,36.8333 50.5,40.1667 50.5,43.5C 47.1667,43.5 43.8333,43.5 40.5,43.5C 40.5,40.1667 40.5,36.8333 40.5,33.5C 43.8333,33.5 47.1667,33.5 50.5,33.5 Z"/></g>
<g><path style="opacity:1" fill="#87264c" d="M 61.5,22.5 C 61.5,29.5 61.5,36.5 61.5,43.5C 61.5,44.1667 61.8333,44.5 62.5,44.5C 62.5,47.5 62.5,50.5 62.5,53.5C 65.5,53.5 68.5,53.5 71.5,53.5C 71.5,53.8333 71.5,54.1667 71.5,54.5C 61.1667,54.5 50.8333,54.5 40.5,54.5C 40.5,54.1667 40.5,53.8333 40.5,53.5C 43.5,53.5 46.5,53.5 49.5,53.5C 49.5,50.5 49.5,47.5 49.5,44.5C 46.5,44.5 43.5,44.5 40.5,44.5C 40.5,44.1667 40.5,43.8333 40.5,43.5C 43.8333,43.5 47.1667,43.5 50.5,43.5C 50.5,40.1667 50.5,36.8333 50.5,33.5C 50.5,33.1667 50.5,32.8333 50.5,32.5C 50.5,29.5 50.5,26.5 50.5,23.5C 53.9619,22.5184 57.6286,22.185 61.5,22.5 Z"/></g>
<g><path style="opacity:1" fill="#e2437f" d="M 51.5,23.5 C 54.5,23.5 57.5,23.5 60.5,23.5C 60.5,26.5 60.5,29.5 60.5,32.5C 57.5,32.5 54.5,32.5 51.5,32.5C 51.5,29.5 51.5,26.5 51.5,23.5 Z"/></g>
<g><path style="opacity:1" fill="#d3417b" d="M 51.5,34.5 C 54.5,34.5 57.5,34.5 60.5,34.5C 60.5,37.5 60.5,40.5 60.5,43.5C 57.5,43.5 54.5,43.5 51.5,43.5C 51.5,40.5 51.5,37.5 51.5,34.5 Z"/></g>
<g><path style="opacity:1" fill="#3c8bd4" d="M 71.5,43.5 C 68.5,43.5 65.5,43.5 62.5,43.5C 62.5,40.5 62.5,37.5 62.5,34.5C 65.5,34.5 68.5,34.5 71.5,34.5C 71.5,37.5 71.5,40.5 71.5,43.5 Z"/></g>
<g><path style="opacity:1" fill="#5596d5" d="M 17.5,43.5 C 18.1667,43.5 18.5,43.8333 18.5,44.5C 18.5,45.8333 18.5,47.1667 18.5,48.5C 14.062,49.5749 12.062,47.9083 12.5,43.5C 14.1667,43.5 15.8333,43.5 17.5,43.5 Z"/></g>
<g><path style="opacity:1" fill="#3f8cd6" d="M 30.5,44.5 C 33.5,44.5 36.5,44.5 39.5,44.5C 39.5,47.5 39.5,50.5 39.5,53.5C 36.5,53.5 33.5,53.5 30.5,53.5C 30.5,50.5 30.5,47.5 30.5,44.5 Z"/></g>
<g><path style="opacity:1" fill="#d4417a" d="M 40.5,44.5 C 43.5,44.5 46.5,44.5 49.5,44.5C 49.5,47.5 49.5,50.5 49.5,53.5C 46.5,53.5 43.5,53.5 40.5,53.5C 40.5,50.5 40.5,47.5 40.5,44.5 Z"/></g>
<g><path style="opacity:1" fill="#d4427c" d="M 51.5,44.5 C 54.5,44.5 57.5,44.5 60.5,44.5C 60.5,47.5 60.5,50.5 60.5,53.5C 57.5,53.5 54.5,53.5 51.5,53.5C 51.5,50.5 51.5,47.5 51.5,44.5 Z"/></g>
<g><path style="opacity:1" fill="#d53f79" d="M 62.5,44.5 C 65.5,44.5 68.5,44.5 71.5,44.5C 71.5,47.5 71.5,50.5 71.5,53.5C 71.5,50.5 71.5,47.5 71.5,44.5C 68.5,44.5 65.5,44.5 62.5,44.5 Z"/></g>
<g><path style="opacity:1" fill="#854d6c" d="M 61.5,43.5 C 61.8333,43.5 62.1667,43.5 62.5,43.5C 65.5,43.5 68.5,43.5 71.5,43.5C 71.8333,43.5 72.1667,43.5 72.5,43.5C 72.815,47.3714 72.4816,51.0381 71.5,54.5C 71.5,54.1667 71.5,53.8333 71.5,53.5C 71.5,50.5 71.5,47.5 71.5,44.5C 68.5,44.5 65.5,44.5 62.5,44.5C 61.8333,44.5 61.5,44.1667 61.5,43.5 Z"/></g>
<g><path style="opacity:1" fill="#bcd6ee" d="M 17.5,43.5 C 15.8333,43.5 14.1667,43.5 12.5,43.5C 12.062,47.9083 14.062,49.5749 18.5,48.5C 18.5,47.1667 18.5,45.8333 18.5,44.5C 20.681,49.4932 19.0143,51.3265 13.5,50C 9.97302,47.6968 9.63969,45.0301 12.5,42C 13.3333,41.8333 14.1667,41.6667 15,41.5C 16.3756,41.6842 17.2089,42.3509 17.5,43.5 Z"/></g>
</svg>
